<?xml version="1.0" encoding="utf-8"?><svg xmlns="http://www.w3.org/2000/svg" xmlns:xlink="http://www.w3.org/1999/xlink"><symbol viewBox="0 0 57 57" id="calendar" xmlns="http://www.w3.org/2000/svg"><path fill="#e7eced" d="M.5 18h56v39H.5z"/><path fill="#23a24d" d="M41.5 5H.5v13h56V5z"/><circle cx="19.5" cy="9" r="2" fill="#38454f"/><circle cx="25.5" cy="9" r="2" fill="#38454f"/><circle cx="31.5" cy="9" r="2" fill="#38454f"/><circle cx="37.5" cy="9" r="2" fill="#38454f"/><path d="M37.5 0c-1.13 0-2.162.391-3 1.025.534.405.979.912 1.315 1.495A2.98 2.98 0 0 1 37.5 2c1.654 0 3 1.346 3 3s-1.346 3-3 3a1 1 0 1 0 0 2c2.757 0 5-2.243 5-5s-2.243-5-5-5z" fill="#afb6bb"/><path d="M33.185 2.52A4.936 4.936 0 0 0 32.5 5h2c0-1.03-.522-1.939-1.315-2.48zm-6 0A4.936 4.936 0 0 0 26.5 5h2c0-1.03-.522-1.939-1.315-2.48z" fill="#839594"/><path d="M35.815 2.52A5.027 5.027 0 0 0 34.5 1.025C33.662.391 32.63 0 31.5 0s-2.162.391-3 1.025c.534.405.979.912 1.315 1.495.481-.328 1.061-.52 1.685-.52s1.204.192 1.685.52A2.999 2.999 0 0 1 31.5 8a1 1 0 1 0 0 2c2.757 0 5-2.243 5-5 0-.907-.261-1.746-.685-2.48z" fill="#afb6bb"/><path d="M21.185 2.52A4.936 4.936 0 0 0 20.5 5h2c0-1.03-.522-1.939-1.315-2.48z" fill="#839594"/><path d="M29.815 2.52A5.027 5.027 0 0 0 28.5 1.025C27.662.391 26.63 0 25.5 0s-2.162.391-3 1.025c.534.405.979.912 1.315 1.495.481-.328 1.061-.52 1.685-.52s1.204.192 1.685.52A2.999 2.999 0 0 1 25.5 8a1 1 0 1 0 0 2c2.757 0 5-2.243 5-5 0-.907-.261-1.746-.685-2.48z" fill="#afb6bb"/><path d="M23.815 2.52A5.027 5.027 0 0 0 22.5 1.025 4.954 4.954 0 0 0 19.5 0c-2.757 0-5 2.243-5 5h2c0-1.654 1.346-3 3-3a2.98 2.98 0 0 1 1.685.52A2.999 2.999 0 0 1 19.5 8a1 1 0 1 0 0 2c2.757 0 5-2.243 5-5 0-.907-.261-1.746-.685-2.48z" fill="#afb6bb"/><path d="M18.5 51a1 1 0 0 1-1-1V24a1 1 0 1 1 2 0v26a1 1 0 0 1-1 1z" fill="#556080"/><path d="M22.5 51h-8a1 1 0 1 1 0-2h8a1 1 0 1 1 0 2zm-10-20a.999.999 0 0 1-.707-1.707l6-6a.999.999 0 1 1 1.414 1.414l-6 6A.997.997 0 0 1 12.5 31zm25 6c-3.86 0-7-3.141-7-7s3.14-7 7-7 7 3.141 7 7-3.14 7-7 7zm0-12c-2.757 0-5 2.243-5 5s2.243 5 5 5 5-2.243 5-5-2.243-5-5-5z" fill="#556080"/><path d="M37.5 51c-3.86 0-7-3.141-7-7a1 1 0 1 1 2 0c0 2.757 2.243 5 5 5s5-2.243 5-5V30a1 1 0 1 1 2 0v14c0 3.859-3.14 7-7 7z" fill="#556080"/></symbol><symbol viewBox="0 0 60 60" id="hourglass" xmlns="http://www.w3.org/2000/svg"><path d="M41.857 22.096A7.063 7.063 0 0 0 45 16.222V5H15v11.222c0 2.36 1.18 4.564 3.143 5.874l9.319 6.843a1.318 1.318 0 0 1 .001 2.122l-9.319 6.843A7.061 7.061 0 0 0 15 43.778V55h30V43.778c0-2.36-1.18-4.564-3.143-5.874l-9.319-6.843a1.318 1.318 0 0 1-.001-2.122l9.32-6.843z" fill="#e6e6e6"/><path fill="#9e6c53" d="M10 55h40v4H10zm0-54h40v4H10z"/><path d="M54 58H6a1 1 0 1 0 0 2h48a1 1 0 1 0 0-2zM6 2h48a1 1 0 1 0 0-2H6a1 1 0 1 0 0 2z" fill="#8a5336"/><path d="M40.192 19.6A4.053 4.053 0 0 0 42 16.223a2.847 2.847 0 0 0-2.156-2.762L24.791 9.698C21.342 8.835 18 11.444 18 15v1.223c0 1.359.676 2.622 1.808 3.377L29 26.346v15.877c0 3.63-3.764 6.036-7.058 4.511-1.774-.821-3.922.394-3.941 2.349V55h24V43.736c-.019-1.931-1.889-3.322-3.791-2.991l-2.049.357A4.405 4.405 0 0 1 31 36.763V26.346l9.192-6.746z" fill="#ebba16"/></symbol><symbol viewBox="0 0 35 35" id="smartphone-call" xmlns="http://www.w3.org/2000/svg"><path d="M25.302 0H9.698a2.37 2.37 0 0 0-2.364 2.364v30.271A2.371 2.371 0 0 0 9.698 35h15.604a2.37 2.37 0 0 0 2.364-2.364V2.364A2.37 2.37 0 0 0 25.302 0zM15.004 1.704h4.992a.286.286 0 0 1 0 .573h-4.992a.286.286 0 1 1 0-.573zM17.5 33.818a1.182 1.182 0 1 1 0-2.364 1.182 1.182 0 0 1 0 2.364zm8.521-3.193H8.979V3.749h17.042v26.876z"/></symbol></svg>